<mxfile host="app.diagrams.net" modified="2021-05-13T16:09:53.693Z" agent="5.0 (Windows NT 10.0; Win64; x64) AppleWebKit/537.36 (KHTML, like Gecko) Chrome/89.0.4389.114 Safari/537.36" etag="cbggZpnOPMt8N7AQDn2h" version="14.6.13" type="github">
  <diagram id="R2lEEEUBdFMjLlhIrx00" name="Page-1">
    <mxGraphModel dx="981" dy="548" grid="1" gridSize="10" guides="1" tooltips="1" connect="1" arrows="1" fold="1" page="1" pageScale="1" pageWidth="850" pageHeight="1100" math="0" shadow="0" extFonts="Permanent Marker^https://fonts.googleapis.com/css?family=Permanent+Marker">
      <root>
        <mxCell id="0" />
        <mxCell id="1" parent="0" />
        <mxCell id="FgvAFNMlwLzb7R4G6VKB-1" value="PROJECT" style="rounded=0;whiteSpace=wrap;html=1;" parent="1" vertex="1">
          <mxGeometry x="70" y="160" width="90" height="40" as="geometry" />
        </mxCell>
        <mxCell id="FgvAFNMlwLzb7R4G6VKB-5" value="&lt;span&gt;description&lt;/span&gt;" style="ellipse;whiteSpace=wrap;html=1;" parent="1" vertex="1">
          <mxGeometry x="120" y="90" width="70" height="30" as="geometry" />
        </mxCell>
        <mxCell id="FgvAFNMlwLzb7R4G6VKB-6" value="&lt;u&gt;name&lt;/u&gt;" style="ellipse;whiteSpace=wrap;html=1;" parent="1" vertex="1">
          <mxGeometry x="40" y="90" width="65" height="30" as="geometry" />
        </mxCell>
        <mxCell id="FgvAFNMlwLzb7R4G6VKB-7" value="" style="endArrow=none;html=1;exitX=0.5;exitY=1;exitDx=0;exitDy=0;entryX=0.5;entryY=0;entryDx=0;entryDy=0;" parent="1" source="FgvAFNMlwLzb7R4G6VKB-6" target="FgvAFNMlwLzb7R4G6VKB-1" edge="1">
          <mxGeometry width="50" height="50" relative="1" as="geometry">
            <mxPoint x="60" y="240" as="sourcePoint" />
            <mxPoint x="110" y="190" as="targetPoint" />
          </mxGeometry>
        </mxCell>
        <mxCell id="FgvAFNMlwLzb7R4G6VKB-9" value="" style="endArrow=none;html=1;exitX=0.5;exitY=1;exitDx=0;exitDy=0;entryX=0.5;entryY=0;entryDx=0;entryDy=0;" parent="1" source="FgvAFNMlwLzb7R4G6VKB-5" target="FgvAFNMlwLzb7R4G6VKB-1" edge="1">
          <mxGeometry width="50" height="50" relative="1" as="geometry">
            <mxPoint x="51.59500000000003" y="229.3699999999999" as="sourcePoint" />
            <mxPoint x="115" y="150" as="targetPoint" />
          </mxGeometry>
        </mxCell>
        <mxCell id="FgvAFNMlwLzb7R4G6VKB-13" value="ISSUE" style="shape=ext;margin=3;double=1;whiteSpace=wrap;html=1;align=center;" parent="1" vertex="1">
          <mxGeometry x="310" y="160" width="100" height="40" as="geometry" />
        </mxCell>
        <mxCell id="FgvAFNMlwLzb7R4G6VKB-17" value="&lt;span style=&quot;border-bottom: 1px dotted&quot;&gt;id&lt;/span&gt;" style="ellipse;whiteSpace=wrap;html=1;align=center;" parent="1" vertex="1">
          <mxGeometry x="240" y="100" width="70" height="30" as="geometry" />
        </mxCell>
        <mxCell id="FgvAFNMlwLzb7R4G6VKB-18" value="&lt;span&gt;name&lt;/span&gt;" style="ellipse;whiteSpace=wrap;html=1;fontStyle=0" parent="1" vertex="1">
          <mxGeometry x="280" y="60" width="65" height="30" as="geometry" />
        </mxCell>
        <mxCell id="FgvAFNMlwLzb7R4G6VKB-20" value="&lt;span&gt;description&lt;/span&gt;" style="ellipse;whiteSpace=wrap;html=1;" parent="1" vertex="1">
          <mxGeometry x="340" y="80" width="70" height="30" as="geometry" />
        </mxCell>
        <mxCell id="FgvAFNMlwLzb7R4G6VKB-21" value="date" style="ellipse;shape=doubleEllipse;margin=3;whiteSpace=wrap;html=1;align=center;" parent="1" vertex="1">
          <mxGeometry x="400" y="110" width="60" height="40" as="geometry" />
        </mxCell>
        <mxCell id="FgvAFNMlwLzb7R4G6VKB-22" value="close" style="ellipse;whiteSpace=wrap;html=1;align=center;" parent="1" vertex="1">
          <mxGeometry x="460" y="34" width="50" height="26" as="geometry" />
        </mxCell>
        <mxCell id="FgvAFNMlwLzb7R4G6VKB-23" value="creation" style="ellipse;whiteSpace=wrap;html=1;align=center;" parent="1" vertex="1">
          <mxGeometry x="390" y="30" width="60" height="30" as="geometry" />
        </mxCell>
        <mxCell id="FgvAFNMlwLzb7R4G6VKB-25" value="" style="endArrow=none;html=1;exitX=0.5;exitY=1;exitDx=0;exitDy=0;entryX=0.5;entryY=0;entryDx=0;entryDy=0;" parent="1" source="FgvAFNMlwLzb7R4G6VKB-23" target="FgvAFNMlwLzb7R4G6VKB-21" edge="1">
          <mxGeometry width="50" height="50" relative="1" as="geometry">
            <mxPoint x="630" y="150" as="sourcePoint" />
            <mxPoint x="590" y="180" as="targetPoint" />
          </mxGeometry>
        </mxCell>
        <mxCell id="FgvAFNMlwLzb7R4G6VKB-26" value="" style="endArrow=none;html=1;exitX=0.5;exitY=1;exitDx=0;exitDy=0;entryX=0.5;entryY=0;entryDx=0;entryDy=0;" parent="1" source="FgvAFNMlwLzb7R4G6VKB-22" target="FgvAFNMlwLzb7R4G6VKB-21" edge="1">
          <mxGeometry width="50" height="50" relative="1" as="geometry">
            <mxPoint x="624.5" y="200" as="sourcePoint" />
            <mxPoint x="590" y="210" as="targetPoint" />
          </mxGeometry>
        </mxCell>
        <mxCell id="FgvAFNMlwLzb7R4G6VKB-30" value="STATE" style="shape=ext;margin=3;double=1;whiteSpace=wrap;html=1;align=center;" parent="1" vertex="1">
          <mxGeometry x="235" y="290" width="100" height="40" as="geometry" />
        </mxCell>
        <mxCell id="FgvAFNMlwLzb7R4G6VKB-33" value="" style="shape=rhombus;perimeter=rhombusPerimeter;whiteSpace=wrap;html=1;align=center;" parent="1" vertex="1">
          <mxGeometry x="266.56" y="220" width="36.88" height="30" as="geometry" />
        </mxCell>
        <mxCell id="FgvAFNMlwLzb7R4G6VKB-34" value="" style="endArrow=none;html=1;rounded=0;exitX=0.5;exitY=0;exitDx=0;exitDy=0;entryX=0.25;entryY=1;entryDx=0;entryDy=0;" parent="1" source="FgvAFNMlwLzb7R4G6VKB-33" target="FgvAFNMlwLzb7R4G6VKB-13" edge="1">
          <mxGeometry relative="1" as="geometry">
            <mxPoint x="480.12250000000006" y="270" as="sourcePoint" />
            <mxPoint x="479.87" y="192.31999999999996" as="targetPoint" />
            <Array as="points">
              <mxPoint x="335" y="220" />
              <mxPoint x="335" y="210" />
            </Array>
          </mxGeometry>
        </mxCell>
        <mxCell id="FgvAFNMlwLzb7R4G6VKB-36" value="" style="endArrow=none;html=1;rounded=0;exitX=0.5;exitY=0;exitDx=0;exitDy=0;entryX=0.5;entryY=1;entryDx=0;entryDy=0;" parent="1" source="FgvAFNMlwLzb7R4G6VKB-30" target="FgvAFNMlwLzb7R4G6VKB-33" edge="1">
          <mxGeometry relative="1" as="geometry">
            <mxPoint x="405.06250000000006" y="380" as="sourcePoint" />
            <mxPoint x="404.94" y="300" as="targetPoint" />
          </mxGeometry>
        </mxCell>
        <mxCell id="FgvAFNMlwLzb7R4G6VKB-41" value="" style="endArrow=none;html=1;rounded=0;exitX=0;exitY=0.5;exitDx=0;exitDy=0;entryX=1;entryY=0.5;entryDx=0;entryDy=0;" parent="1" source="FgvAFNMlwLzb7R4G6VKB-46" target="FgvAFNMlwLzb7R4G6VKB-1" edge="1">
          <mxGeometry relative="1" as="geometry">
            <mxPoint x="210" y="180" as="sourcePoint" />
            <mxPoint x="176.88" y="185" as="targetPoint" />
          </mxGeometry>
        </mxCell>
        <mxCell id="FgvAFNMlwLzb7R4G6VKB-42" value="1" style="resizable=0;html=1;align=right;verticalAlign=bottom;" parent="FgvAFNMlwLzb7R4G6VKB-41" connectable="0" vertex="1">
          <mxGeometry x="1" relative="1" as="geometry">
            <mxPoint x="10" as="offset" />
          </mxGeometry>
        </mxCell>
        <mxCell id="FgvAFNMlwLzb7R4G6VKB-43" value="" style="endArrow=none;html=1;rounded=0;exitX=0;exitY=0.5;exitDx=0;exitDy=0;entryX=1;entryY=0.5;entryDx=0;entryDy=0;" parent="1" source="FgvAFNMlwLzb7R4G6VKB-13" target="FgvAFNMlwLzb7R4G6VKB-46" edge="1">
          <mxGeometry relative="1" as="geometry">
            <mxPoint x="430" y="179.92" as="sourcePoint" />
            <mxPoint x="250" y="180" as="targetPoint" />
          </mxGeometry>
        </mxCell>
        <mxCell id="FgvAFNMlwLzb7R4G6VKB-44" value="N" style="resizable=0;html=1;align=right;verticalAlign=bottom;" parent="FgvAFNMlwLzb7R4G6VKB-43" connectable="0" vertex="1">
          <mxGeometry x="1" relative="1" as="geometry">
            <mxPoint x="66" y="-1.7763568394002505e-15" as="offset" />
          </mxGeometry>
        </mxCell>
        <mxCell id="FgvAFNMlwLzb7R4G6VKB-46" value="" style="shape=rhombus;double=1;perimeter=rhombusPerimeter;whiteSpace=wrap;html=1;align=center;" parent="1" vertex="1">
          <mxGeometry x="210" y="165" width="30" height="30" as="geometry" />
        </mxCell>
        <mxCell id="FgvAFNMlwLzb7R4G6VKB-47" value="" style="endArrow=none;html=1;exitX=0.5;exitY=1;exitDx=0;exitDy=0;entryX=0.5;entryY=0;entryDx=0;entryDy=0;" parent="1" source="FgvAFNMlwLzb7R4G6VKB-17" target="FgvAFNMlwLzb7R4G6VKB-13" edge="1">
          <mxGeometry width="50" height="50" relative="1" as="geometry">
            <mxPoint x="300" y="130" as="sourcePoint" />
            <mxPoint x="260" y="170" as="targetPoint" />
          </mxGeometry>
        </mxCell>
        <mxCell id="FgvAFNMlwLzb7R4G6VKB-48" value="" style="endArrow=none;html=1;exitX=0.5;exitY=1;exitDx=0;exitDy=0;entryX=0.5;entryY=0;entryDx=0;entryDy=0;" parent="1" source="FgvAFNMlwLzb7R4G6VKB-18" target="FgvAFNMlwLzb7R4G6VKB-13" edge="1">
          <mxGeometry width="50" height="50" relative="1" as="geometry">
            <mxPoint x="322.5" y="110" as="sourcePoint" />
            <mxPoint x="397.5" y="150" as="targetPoint" />
          </mxGeometry>
        </mxCell>
        <mxCell id="FgvAFNMlwLzb7R4G6VKB-50" value="" style="endArrow=none;html=1;exitX=0.5;exitY=1;exitDx=0;exitDy=0;entryX=0.5;entryY=0;entryDx=0;entryDy=0;" parent="1" source="FgvAFNMlwLzb7R4G6VKB-20" target="FgvAFNMlwLzb7R4G6VKB-13" edge="1">
          <mxGeometry width="50" height="50" relative="1" as="geometry">
            <mxPoint x="342.5" y="100" as="sourcePoint" />
            <mxPoint x="370" y="170" as="targetPoint" />
          </mxGeometry>
        </mxCell>
        <mxCell id="FgvAFNMlwLzb7R4G6VKB-51" value="" style="endArrow=none;html=1;exitX=0.5;exitY=1;exitDx=0;exitDy=0;entryX=0.5;entryY=0;entryDx=0;entryDy=0;" parent="1" source="FgvAFNMlwLzb7R4G6VKB-21" target="FgvAFNMlwLzb7R4G6VKB-13" edge="1">
          <mxGeometry width="50" height="50" relative="1" as="geometry">
            <mxPoint x="410" y="115" as="sourcePoint" />
            <mxPoint x="370" y="165" as="targetPoint" />
          </mxGeometry>
        </mxCell>
        <mxCell id="FgvAFNMlwLzb7R4G6VKB-57" value="" style="endArrow=none;html=1;rounded=0;exitX=0;exitY=0.5;exitDx=0;exitDy=0;entryX=1;entryY=0.5;entryDx=0;entryDy=0;" parent="1" target="FgvAFNMlwLzb7R4G6VKB-13" edge="1">
          <mxGeometry relative="1" as="geometry">
            <mxPoint x="470" y="179.71" as="sourcePoint" />
            <mxPoint x="420" y="179.71" as="targetPoint" />
          </mxGeometry>
        </mxCell>
        <mxCell id="FgvAFNMlwLzb7R4G6VKB-58" value="N" style="resizable=0;html=1;align=right;verticalAlign=bottom;" parent="FgvAFNMlwLzb7R4G6VKB-57" connectable="0" vertex="1">
          <mxGeometry x="1" relative="1" as="geometry">
            <mxPoint x="15" as="offset" />
          </mxGeometry>
        </mxCell>
        <mxCell id="FgvAFNMlwLzb7R4G6VKB-59" value="" style="endArrow=none;html=1;rounded=0;exitX=0;exitY=0.5;exitDx=0;exitDy=0;entryX=1;entryY=0.5;entryDx=0;entryDy=0;" parent="1" source="qHFala-yuGioKwi1r9tJ-3" edge="1">
          <mxGeometry relative="1" as="geometry">
            <mxPoint x="560" y="180" as="sourcePoint" />
            <mxPoint x="500" y="180" as="targetPoint" />
          </mxGeometry>
        </mxCell>
        <mxCell id="FgvAFNMlwLzb7R4G6VKB-60" value="N" style="resizable=0;html=1;align=right;verticalAlign=bottom;" parent="FgvAFNMlwLzb7R4G6VKB-59" connectable="0" vertex="1">
          <mxGeometry x="1" relative="1" as="geometry">
            <mxPoint x="50" as="offset" />
          </mxGeometry>
        </mxCell>
        <mxCell id="FgvAFNMlwLzb7R4G6VKB-62" value="&lt;span&gt;name&lt;/span&gt;" style="ellipse;whiteSpace=wrap;html=1;fontStyle=0" parent="1" vertex="1">
          <mxGeometry x="620" y="90" width="65" height="30" as="geometry" />
        </mxCell>
        <mxCell id="FgvAFNMlwLzb7R4G6VKB-63" value="" style="endArrow=none;html=1;exitX=0.5;exitY=1;exitDx=0;exitDy=0;entryX=0.5;entryY=0;entryDx=0;entryDy=0;" parent="1" source="FgvAFNMlwLzb7R4G6VKB-62" target="qHFala-yuGioKwi1r9tJ-3" edge="1">
          <mxGeometry width="50" height="50" relative="1" as="geometry">
            <mxPoint x="595" y="120.00000000000011" as="sourcePoint" />
            <mxPoint x="620" y="150" as="targetPoint" />
          </mxGeometry>
        </mxCell>
        <mxCell id="FgvAFNMlwLzb7R4G6VKB-64" value="&lt;span&gt;name&lt;/span&gt;" style="ellipse;whiteSpace=wrap;html=1;fontStyle=0" parent="1" vertex="1">
          <mxGeometry x="290" y="360" width="65" height="30" as="geometry" />
        </mxCell>
        <mxCell id="FgvAFNMlwLzb7R4G6VKB-65" value="" style="endArrow=none;html=1;entryX=0.5;entryY=0;entryDx=0;entryDy=0;exitX=0.5;exitY=1;exitDx=0;exitDy=0;" parent="1" source="FgvAFNMlwLzb7R4G6VKB-30" target="FgvAFNMlwLzb7R4G6VKB-64" edge="1">
          <mxGeometry width="50" height="50" relative="1" as="geometry">
            <mxPoint x="285" y="340" as="sourcePoint" />
            <mxPoint x="299" y="370" as="targetPoint" />
          </mxGeometry>
        </mxCell>
        <mxCell id="FgvAFNMlwLzb7R4G6VKB-67" value="" style="endArrow=none;html=1;entryX=0.5;entryY=0;entryDx=0;entryDy=0;" parent="1" target="qHFala-yuGioKwi1r9tJ-2" edge="1">
          <mxGeometry width="50" height="50" relative="1" as="geometry">
            <mxPoint x="285" y="330" as="sourcePoint" />
            <mxPoint x="247.5" y="380" as="targetPoint" />
          </mxGeometry>
        </mxCell>
        <mxCell id="FgvAFNMlwLzb7R4G6VKB-69" value="" style="endArrow=none;html=1;exitX=0.5;exitY=1;exitDx=0;exitDy=0;entryX=0.5;entryY=0;entryDx=0;entryDy=0;" parent="1" target="qHFala-yuGioKwi1r9tJ-3" edge="1">
          <mxGeometry width="50" height="50" relative="1" as="geometry">
            <mxPoint x="580" y="120" as="sourcePoint" />
            <mxPoint x="610" y="150" as="targetPoint" />
          </mxGeometry>
        </mxCell>
        <mxCell id="qHFala-yuGioKwi1r9tJ-2" value="&lt;span style=&quot;border-bottom: 1px dotted&quot;&gt;id&lt;/span&gt;" style="ellipse;whiteSpace=wrap;html=1;align=center;" parent="1" vertex="1">
          <mxGeometry x="220" y="360" width="60" height="30" as="geometry" />
        </mxCell>
        <mxCell id="qHFala-yuGioKwi1r9tJ-3" value="LABEL" style="rounded=0;whiteSpace=wrap;html=1;" parent="1" vertex="1">
          <mxGeometry x="570" y="160" width="90" height="40" as="geometry" />
        </mxCell>
        <mxCell id="qHFala-yuGioKwi1r9tJ-5" value="" style="shape=rhombus;perimeter=rhombusPerimeter;whiteSpace=wrap;html=1;align=center;" parent="1" vertex="1">
          <mxGeometry x="470" y="165" width="30" height="30" as="geometry" />
        </mxCell>
        <mxCell id="qHFala-yuGioKwi1r9tJ-10" value="&lt;u&gt;id&lt;br&gt;&lt;/u&gt;" style="ellipse;whiteSpace=wrap;html=1;" parent="1" vertex="1">
          <mxGeometry x="545" y="90" width="65" height="30" as="geometry" />
        </mxCell>
        <mxCell id="qHFala-yuGioKwi1r9tJ-11" value="COMMENT" style="shape=ext;margin=3;double=1;whiteSpace=wrap;html=1;align=center;" parent="1" vertex="1">
          <mxGeometry x="398" y="290.86" width="100" height="40" as="geometry" />
        </mxCell>
        <mxCell id="qHFala-yuGioKwi1r9tJ-12" value="" style="shape=rhombus;perimeter=rhombusPerimeter;whiteSpace=wrap;html=1;align=center;" parent="1" vertex="1">
          <mxGeometry x="433" y="220.86" width="30" height="30" as="geometry" />
        </mxCell>
        <mxCell id="qHFala-yuGioKwi1r9tJ-14" value="" style="endArrow=none;html=1;rounded=0;exitX=0.5;exitY=0;exitDx=0;exitDy=0;entryX=0.5;entryY=1;entryDx=0;entryDy=0;" parent="1" source="qHFala-yuGioKwi1r9tJ-11" target="qHFala-yuGioKwi1r9tJ-12" edge="1">
          <mxGeometry relative="1" as="geometry">
            <mxPoint x="568.0625" y="360.86" as="sourcePoint" />
            <mxPoint x="567.94" y="280.86" as="targetPoint" />
          </mxGeometry>
        </mxCell>
        <mxCell id="qHFala-yuGioKwi1r9tJ-15" value="N" style="resizable=0;html=1;align=right;verticalAlign=bottom;" parent="qHFala-yuGioKwi1r9tJ-14" connectable="0" vertex="1">
          <mxGeometry x="1" relative="1" as="geometry">
            <mxPoint y="40" as="offset" />
          </mxGeometry>
        </mxCell>
        <mxCell id="qHFala-yuGioKwi1r9tJ-16" value="&lt;span&gt;description&lt;/span&gt;" style="ellipse;whiteSpace=wrap;html=1;fontStyle=0" parent="1" vertex="1">
          <mxGeometry x="433" y="380.86" width="65" height="30" as="geometry" />
        </mxCell>
        <mxCell id="qHFala-yuGioKwi1r9tJ-17" value="" style="endArrow=none;html=1;entryX=0.5;entryY=0;entryDx=0;entryDy=0;" parent="1" target="qHFala-yuGioKwi1r9tJ-16" edge="1">
          <mxGeometry width="50" height="50" relative="1" as="geometry">
            <mxPoint x="448" y="330.86" as="sourcePoint" />
            <mxPoint x="462" y="350.86" as="targetPoint" />
          </mxGeometry>
        </mxCell>
        <mxCell id="qHFala-yuGioKwi1r9tJ-18" value="" style="endArrow=none;html=1;entryX=0.5;entryY=0;entryDx=0;entryDy=0;exitX=0.5;exitY=1;exitDx=0;exitDy=0;" parent="1" source="qHFala-yuGioKwi1r9tJ-11" target="qHFala-yuGioKwi1r9tJ-19" edge="1">
          <mxGeometry width="50" height="50" relative="1" as="geometry">
            <mxPoint x="448" y="320.86" as="sourcePoint" />
            <mxPoint x="410.5" y="360.86" as="targetPoint" />
          </mxGeometry>
        </mxCell>
        <mxCell id="qHFala-yuGioKwi1r9tJ-19" value="&lt;span style=&quot;border-bottom: 1px dotted&quot;&gt;id&lt;/span&gt;" style="ellipse;whiteSpace=wrap;html=1;align=center;" parent="1" vertex="1">
          <mxGeometry x="378" y="360.86" width="60" height="30" as="geometry" />
        </mxCell>
        <mxCell id="qHFala-yuGioKwi1r9tJ-20" value="" style="endArrow=none;html=1;rounded=0;entryX=0.25;entryY=1;entryDx=0;entryDy=0;exitX=0.5;exitY=0;exitDx=0;exitDy=0;" parent="1" source="qHFala-yuGioKwi1r9tJ-12" edge="1">
          <mxGeometry relative="1" as="geometry">
            <mxPoint x="450" y="220" as="sourcePoint" />
            <mxPoint x="385" y="200" as="targetPoint" />
            <Array as="points">
              <mxPoint x="385" y="220" />
            </Array>
          </mxGeometry>
        </mxCell>
        <mxCell id="qHFala-yuGioKwi1r9tJ-21" value="1" style="resizable=0;html=1;align=right;verticalAlign=bottom;" parent="qHFala-yuGioKwi1r9tJ-20" connectable="0" vertex="1">
          <mxGeometry x="1" relative="1" as="geometry">
            <mxPoint x="13" y="20.71" as="offset" />
          </mxGeometry>
        </mxCell>
        <mxCell id="qHFala-yuGioKwi1r9tJ-22" value="&lt;span&gt;dt&lt;/span&gt;" style="ellipse;whiteSpace=wrap;html=1;fontStyle=0" parent="1" vertex="1">
          <mxGeometry x="488" y="360.86" width="62.5" height="30" as="geometry" />
        </mxCell>
        <mxCell id="qHFala-yuGioKwi1r9tJ-23" value="" style="endArrow=none;html=1;entryX=0.5;entryY=0;entryDx=0;entryDy=0;" parent="1" target="qHFala-yuGioKwi1r9tJ-22" edge="1">
          <mxGeometry width="50" height="50" relative="1" as="geometry">
            <mxPoint x="448" y="330.86" as="sourcePoint" />
            <mxPoint x="500.5" y="370.86" as="targetPoint" />
          </mxGeometry>
        </mxCell>
        <mxCell id="ZTbJiRRRFEa-uH2fIKwn-1" value="N" style="resizable=0;html=1;align=right;verticalAlign=bottom;" parent="1" connectable="0" vertex="1">
          <mxGeometry x="280" y="290.86" as="geometry" />
        </mxCell>
        <mxCell id="ZTbJiRRRFEa-uH2fIKwn-2" value="N" style="resizable=0;html=1;align=right;verticalAlign=bottom;" parent="1" connectable="0" vertex="1">
          <mxGeometry x="322.5" y="220.86" as="geometry" />
        </mxCell>
        <mxCell id="ir_sQmzhxYVxnM8naMoM-2" value="GIT_USER" style="rounded=0;whiteSpace=wrap;html=1;" vertex="1" parent="1">
          <mxGeometry x="70" y="350" width="90" height="40" as="geometry" />
        </mxCell>
        <mxCell id="ir_sQmzhxYVxnM8naMoM-3" value="" style="shape=rhombus;perimeter=rhombusPerimeter;whiteSpace=wrap;html=1;align=center;" vertex="1" parent="1">
          <mxGeometry x="96.56" y="260" width="36.88" height="30" as="geometry" />
        </mxCell>
        <mxCell id="ir_sQmzhxYVxnM8naMoM-4" value="" style="endArrow=none;html=1;rounded=0;exitX=0.5;exitY=0;exitDx=0;exitDy=0;entryX=0.5;entryY=1;entryDx=0;entryDy=0;" edge="1" parent="1" source="ir_sQmzhxYVxnM8naMoM-2" target="ir_sQmzhxYVxnM8naMoM-3">
          <mxGeometry relative="1" as="geometry">
            <mxPoint x="295" y="300" as="sourcePoint" />
            <mxPoint x="240" y="260" as="targetPoint" />
          </mxGeometry>
        </mxCell>
        <mxCell id="ir_sQmzhxYVxnM8naMoM-5" value="" style="endArrow=none;html=1;rounded=0;exitX=0.5;exitY=0;exitDx=0;exitDy=0;entryX=0.5;entryY=1;entryDx=0;entryDy=0;" edge="1" parent="1" source="ir_sQmzhxYVxnM8naMoM-3" target="FgvAFNMlwLzb7R4G6VKB-1">
          <mxGeometry relative="1" as="geometry">
            <mxPoint x="125" y="320" as="sourcePoint" />
            <mxPoint x="125" y="280" as="targetPoint" />
          </mxGeometry>
        </mxCell>
        <mxCell id="ir_sQmzhxYVxnM8naMoM-6" value="&lt;u&gt;username&lt;/u&gt;" style="ellipse;whiteSpace=wrap;html=1;" vertex="1" parent="1">
          <mxGeometry x="20" y="420" width="65" height="30" as="geometry" />
        </mxCell>
        <mxCell id="ir_sQmzhxYVxnM8naMoM-15" value="N" style="resizable=0;html=1;align=right;verticalAlign=bottom;" connectable="0" vertex="1" parent="1">
          <mxGeometry x="225" y="280" as="geometry">
            <mxPoint x="-117" y="68" as="offset" />
          </mxGeometry>
        </mxCell>
        <mxCell id="ir_sQmzhxYVxnM8naMoM-16" value="N" style="resizable=0;html=1;align=right;verticalAlign=bottom;" connectable="0" vertex="1" parent="1">
          <mxGeometry x="225" y="150" as="geometry">
            <mxPoint x="-117" y="68" as="offset" />
          </mxGeometry>
        </mxCell>
        <mxCell id="ir_sQmzhxYVxnM8naMoM-17" value="&lt;span&gt;password&lt;/span&gt;" style="ellipse;whiteSpace=wrap;html=1;" vertex="1" parent="1">
          <mxGeometry x="80" y="460" width="70" height="30" as="geometry" />
        </mxCell>
        <mxCell id="ir_sQmzhxYVxnM8naMoM-18" value="&lt;span&gt;email&lt;/span&gt;" style="ellipse;whiteSpace=wrap;html=1;" vertex="1" parent="1">
          <mxGeometry x="155" y="440" width="70" height="30" as="geometry" />
        </mxCell>
        <mxCell id="ir_sQmzhxYVxnM8naMoM-19" value="" style="endArrow=none;html=1;entryX=1;entryY=0;entryDx=0;entryDy=0;exitX=0.5;exitY=1;exitDx=0;exitDy=0;" edge="1" parent="1" source="ir_sQmzhxYVxnM8naMoM-2" target="ir_sQmzhxYVxnM8naMoM-6">
          <mxGeometry width="50" height="50" relative="1" as="geometry">
            <mxPoint x="100" y="400" as="sourcePoint" />
            <mxPoint x="80" y="420" as="targetPoint" />
          </mxGeometry>
        </mxCell>
        <mxCell id="ir_sQmzhxYVxnM8naMoM-20" value="" style="endArrow=none;html=1;entryX=0.5;entryY=0;entryDx=0;entryDy=0;exitX=0.5;exitY=1;exitDx=0;exitDy=0;" edge="1" parent="1" source="ir_sQmzhxYVxnM8naMoM-2" target="ir_sQmzhxYVxnM8naMoM-17">
          <mxGeometry width="50" height="50" relative="1" as="geometry">
            <mxPoint x="115" y="410" as="sourcePoint" />
            <mxPoint x="85.30213822234919" y="434.3114977082737" as="targetPoint" />
          </mxGeometry>
        </mxCell>
        <mxCell id="ir_sQmzhxYVxnM8naMoM-21" value="" style="endArrow=none;html=1;entryX=0.5;entryY=0;entryDx=0;entryDy=0;exitX=0.5;exitY=1;exitDx=0;exitDy=0;" edge="1" parent="1" source="ir_sQmzhxYVxnM8naMoM-2" target="ir_sQmzhxYVxnM8naMoM-18">
          <mxGeometry width="50" height="50" relative="1" as="geometry">
            <mxPoint x="115" y="389" as="sourcePoint" />
            <mxPoint x="125" y="470" as="targetPoint" />
          </mxGeometry>
        </mxCell>
      </root>
    </mxGraphModel>
  </diagram>
</mxfile>

